<?xml version="1.0" encoding="utf-8"?>
<!-- Generator: Adobe Illustrator 23.1.0, SVG Export Plug-In . SVG Version: 6.00 Build 0)  -->
<svg version="1.1" id="Lager_1" xmlns="http://www.w3.org/2000/svg" xmlns:xlink="http://www.w3.org/1999/xlink" x="0px" y="0px"
	 viewBox="0 0 351.84 335.37" style="enable-background:new 0 0 351.84 335.37;" xml:space="preserve">
<style type="text/css">
	.st0{fill:#FFFFFF;}
</style>
<g>
	<circle class="st0" cx="167.96" cy="166.32" r="8.68"/>
	<path class="st0" d="M324.57,180.85c-1.33-5.7-5.45-10.23-11.88-14.35c4.89-3.14,10.34-7.74,11.88-14.34l0.93-3.98l-1.9-3.62
		c-2.98-5.69-10.59-11.87-17.24-15.96c1.96-5.72,2.96-10.71,2.96-14.86c0-1.32-0.1-2.63-0.3-3.89l-2.19-14.03l-13.04,5.62
		c-6.4,2.76-16.41,7.96-17.53,8.55l-0.2,0.11l-0.2,0.11l-0.11,0.06c-6.6,3.81-12.23,9.09-16.27,15.25c-0.72,1.1-1.35,2.17-1.91,3.12
		c-1.25,2.12-2.05,3.44-2.84,3.89c-0.35,0.2-0.89,0.38-1.54,0.51l-0.24,0.05l-0.24,0.06l-46.33,11.22l32.74-34.93l0.13-0.14
		l0.13-0.15c0.44-0.5,0.86-0.88,1.21-1.08c0.78-0.45,2.33-0.49,4.79-0.51c1.1-0.01,2.34-0.02,3.65-0.09
		c7.36-0.42,14.74-2.65,21.34-6.46l0.11-0.06l0.2-0.11l0.19-0.12c1.07-0.68,10.58-6.75,16.17-10.91l11.39-8.48l-11.06-8.91
		c-0.99-0.8-2.07-1.54-3.22-2.2c-3.58-2.06-8.42-3.71-14.39-4.91c-0.04-7.52-1.24-17.01-4.83-22.69l-2.19-3.46l-3.91-1.19
		c-6.48-1.97-13.19,0.46-18.35,3.12c-0.35-7.63-2.22-13.46-6.49-17.46l-2.99-2.8l-4.09-0.17c-7.9-0.32-18.05,4.58-22.45,6.94
		c-3.97-4.55-7.79-7.91-11.37-9.97c-1.14-0.66-2.33-1.23-3.51-1.69l-13.24-5.12l-1.65,14.11c-0.81,6.91-1.31,18.19-1.37,19.46
		l-0.01,0.22l0,0.22c-0.02,7.67,1.73,15.23,5.07,21.85c0.59,1.17,1.2,2.25,1.74,3.21c2.22,3.92,2.22,4.24,1.62,5.99l-0.08,0.23
		l-0.07,0.23l-13.65,46.42l-13.65-46.42l-0.07-0.23l-0.08-0.23c-0.6-1.75-0.59-2.08,1.62-6c0.54-0.95,1.15-2.04,1.74-3.21
		c3.34-6.62,5.09-14.18,5.07-21.85l0-0.22l-0.01-0.22c-0.05-1.26-0.56-12.54-1.37-19.46l-1.65-14.1l-13.24,5.12
		c-1.19,0.46-2.37,1.03-3.51,1.69c-3.59,2.07-7.41,5.43-11.39,9.99c-6.87-3.72-16.02-7.21-22.44-6.95l-4.09,0.17l-2.99,2.8
		c-4.27,4-6.13,9.83-6.49,17.45c-6.78-3.5-12.76-4.8-18.36-3.1l-3.91,1.19l-2.19,3.46c-3.59,5.68-4.79,15.17-4.83,22.69
		c-5.98,1.19-10.82,2.84-14.39,4.91c-1.14,0.66-2.23,1.4-3.22,2.2l-11.06,8.91l11.39,8.48c5.58,4.16,15.1,10.23,16.17,10.91
		l0.19,0.12l0.19,0.11c6.63,3.85,14.05,6.11,21.46,6.53c1.31,0.07,2.55,0.08,3.65,0.09c4.5,0.04,4.78,0.19,6,1.59l0.13,0.15
		l0.13,0.14l32.74,34.93L83.2,133.15l-0.24-0.06l-0.24-0.05c-1.82-0.36-2.1-0.53-4.38-4.4c-0.56-0.95-1.19-2.02-1.91-3.11
		c-4.06-6.2-9.73-11.5-16.38-15.32l-0.19-0.11l-0.2-0.1c-1.12-0.58-11.14-5.79-17.53-8.55l-13.04-5.63l-2.19,14.03
		c-0.2,1.26-0.3,2.56-0.3,3.89c0,4.14,0.99,9.12,2.95,14.84c-4.25,2.63-13.56,8.97-17.23,15.98l-1.9,3.62l0.93,3.98
		c1.33,5.7,5.45,10.23,11.88,14.35c-4.89,3.14-10.34,7.74-11.88,14.34l-0.93,3.98l1.9,3.62c3.12,5.95,10.74,11.73,17.23,15.53
		c-1.96,5.77-2.95,10.79-2.95,14.92c0,1.32,0.1,2.63,0.3,3.89l2.19,14.03l13.04-5.62c6.4-2.76,16.41-7.96,17.53-8.55l0.2-0.11
		l0.2-0.11l0.11-0.06c6.6-3.81,12.23-9.09,16.27-15.25c0.72-1.1,1.35-2.17,1.91-3.12c1.25-2.12,2.05-3.44,2.84-3.89
		c0.35-0.2,0.89-0.38,1.54-0.51l0.19-0.04l0.19-0.04l46.62-10.89l-32.88,34.51l-0.17,0.18l-0.16,0.18c-0.44,0.5-0.86,0.88-1.21,1.08
		c-0.78,0.45-2.33,0.49-4.79,0.51c-1.1,0.01-2.34,0.02-3.65,0.09c-7.36,0.42-14.74,2.65-21.34,6.46l-0.11,0.06l-0.2,0.11l-0.19,0.12
		c-1.07,0.68-10.59,6.76-16.17,10.91l-11.39,8.48l11.06,8.91c0.99,0.8,2.07,1.54,3.22,2.2c3.59,2.07,8.41,3.71,14.34,4.87
		c0.22,7.81,1.76,17.48,5.2,22.91l2.19,3.46l3.91,1.19c6.48,1.97,13.19-0.46,18.35-3.12c0.35,7.63,2.22,13.46,6.49,17.46l2.99,2.8
		l4.09,0.17c7.78,0.32,17.59-4.61,22.08-7.14c4.02,4.57,7.86,7.93,11.43,10c1.15,0.66,2.33,1.23,3.51,1.69l13.24,5.12l1.65-14.1
		c0.81-6.91,1.31-18.19,1.37-19.46l0.01-0.22l0-0.22c0.02-7.67-1.73-15.23-5.07-21.85c-0.59-1.17-1.2-2.25-1.74-3.21
		c-2.22-3.92-2.22-4.24-1.62-5.99l0.06-0.19l0.06-0.19l13.68-45.14l13.68,45.14l0.06,0.19l0.06,0.19c0.6,1.75,0.59,2.08-1.62,5.99
		c-0.54,0.95-1.15,2.04-1.74,3.21c-3.34,6.62-5.09,14.18-5.07,21.85l0,0.22l0.01,0.22c0.05,1.26,0.56,12.54,1.37,19.46l1.65,14.1
		l13.24-5.12c1.19-0.46,2.37-1.03,3.51-1.69c3.58-2.06,7.42-5.43,11.45-10.01c6.53,3.72,15.35,7.43,22.06,7.16l4.09-0.17l2.99-2.8
		c4.27-4,6.13-9.83,6.49-17.45c6.78,3.5,12.76,4.8,18.36,3.1l3.91-1.19l2.19-3.46c3.44-5.43,4.98-15.1,5.2-22.91
		c5.93-1.16,10.76-2.79,14.34-4.87c1.14-0.66,2.23-1.4,3.22-2.2l11.06-8.91l-11.39-8.48c-5.58-4.16-15.1-10.23-16.17-10.91
		l-0.19-0.12l-0.19-0.11c-6.63-3.85-14.05-6.11-21.46-6.53c-1.31-0.07-2.55-0.08-3.65-0.09c-4.5-0.04-4.78-0.19-6-1.59l-0.16-0.18
		l-0.17-0.18l-32.88-34.51l46.62,10.89l0.19,0.04l0.19,0.04c1.82,0.36,2.1,0.53,4.38,4.4c0.56,0.95,1.19,2.02,1.91,3.11
		c4.06,6.2,9.73,11.5,16.38,15.32l0.19,0.11l0.2,0.1c1.12,0.58,11.14,5.79,17.53,8.55l13.04,5.63l2.19-14.03
		c0.2-1.26,0.3-2.56,0.3-3.89c0-4.12-0.99-9.13-2.94-14.9c4.43-2.62,13.61-8.65,17.22-15.55l1.9-3.62L324.57,180.85z M300.22,194.86
		c-2.3,1.33-4.38,2.33-5.76,2.75l-2.86,0.88l1.64,2.11c0.06,0.08,5.09,11.01,5.09,18.29c0,0.73-0.05,1.47-0.16,2.19
		c-6.09-2.63-16.06-7.81-16.81-8.2c-5.16-2.96-9.54-7.04-12.66-11.81c-3.29-5.02-5.04-10.65-13.37-12.28l-65.58-15.31l-0.01,0.01
		c-2.16-0.46-4.47,0.47-5.63,2.49c-1.31,2.27-0.72,5.1,1.25,6.7l45.77,48.04c5.58,6.4,11.34,5.1,17.32,5.44
		c5.68,0.32,11.41,2.07,16.55,5.06c0.71,0.45,10.19,6.49,15.5,10.45c-0.57,0.46-1.18,0.87-1.82,1.24
		c-6.3,3.64-18.11,4.65-18.21,4.64l-2.65-0.36l0.66,2.92c1.05,4.64,0.06,19.16-3.15,24.22c-7.25,2.2-23.3-11.1-27.92-14.67
		c0.78,5.78,4.28,26.33-1.26,31.51c-5.99,0.24-18.57-6.44-22.06-9.67l-2.2-2.04l-1.01,2.47c-0.04,0.09-6.99,9.91-13.29,13.55
		c-0.64,0.37-1.3,0.69-1.98,0.95c-0.77-6.59-1.27-17.82-1.3-18.65c-0.02-5.95,1.33-11.78,3.89-16.86c2.7-5.36,6.7-9.69,3.95-17.72
		l-19.12-63.11c-0.05-0.21-0.11-0.41-0.19-0.62l-0.22-0.72l-0.1,0c-0.45-0.83-1.11-1.56-1.98-2.06c-2.51-1.45-5.73-0.59-7.18,1.92
		c-0.03,0.04-0.04,0.09-0.06,0.14h-0.03l-0.07,0.22c-0.26,0.54-0.44,1.09-0.5,1.66l-18.96,62.57c-2.75,8.03,1.25,12.37,3.95,17.72
		c2.56,5.08,3.91,10.91,3.89,16.86c-0.04,0.84-0.53,12.07-1.3,18.65c-0.68-0.26-1.35-0.59-1.98-0.95
		c-6.3-3.64-13.26-13.46-13.29-13.55l-1.01-2.47l-2.2,2.04c-1.06,0.98-2.96,2.28-5.27,3.61c-5.27,3.04-12.63,6.23-16.79,6.06
		c-5.53-5.18-2.04-25.73-1.26-31.51c-2.66,2.06-9.14,7.37-15.54,11.06c-4.68,2.7-9.31,4.54-12.38,3.61
		c-3.2-5.06-4.2-19.58-3.15-24.22l0.66-2.92l-2.65,0.36c-0.1,0.01-11.91-1-18.21-4.64c-0.64-0.37-1.25-0.78-1.82-1.24
		c5.32-3.96,14.8-10,15.5-10.45c0.03-0.02,0.06-0.03,0.09-0.05c5.12-2.96,10.81-4.69,16.46-5.01c4.57-0.26,9,0.44,13.32-2.06
		c1.34-0.78,2.68-1.86,4-3.38l46.03-48.32c0.08-0.08,0.16-0.16,0.24-0.25l0.27-0.29l-0.03-0.05c0.11-0.15,0.22-0.28,0.32-0.44
		c1.45-2.51,0.59-5.73-1.92-7.18c-1.09-0.63-2.31-0.8-3.46-0.61l-0.06-0.1l-65.58,15.31c-1.98,0.39-3.58,1-4.93,1.78
		c-4.32,2.5-5.94,6.68-8.44,10.51c-3.1,4.73-7.45,8.8-12.57,11.75c-0.03,0.02-0.06,0.03-0.09,0.05c-0.74,0.39-10.72,5.57-16.81,8.2
		c-0.11-0.73-0.16-1.46-0.16-2.19c0-7.27,5.03-18.21,5.09-18.29l1.64-2.11l-2.86-0.88c-4.54-1.41-16.62-8.96-19.4-14.27
		c0.73-3.12,4.64-6.21,9.31-8.91c6.4-3.69,14.23-6.65,17.35-7.93c-5.39-2.21-24.94-9.46-26.66-16.84
		c2.07-3.96,9.31-9.48,14.75-12.61c1.86-1.07,3.5-1.86,4.66-2.22l2.86-0.88l-1.64-2.11c-0.06-0.08-5.09-10.81-5.09-18.09
		c0-0.73,0.05-1.47,0.16-2.19c6.09,2.63,16.06,7.81,16.81,8.2c5.16,2.96,9.54,7.04,12.66,11.81c3.29,5.02,5.04,10.65,13.37,12.28
		l64.62,15.65c0.15,0.05,0.3,0.07,0.44,0.11l0.52,0.13l0-0.01c2.06,0.28,4.17-0.66,5.27-2.57c1.15-2,0.83-4.42-0.61-6.07l0.01-0.02
		l-46.05-49.14c-5.58-6.4-11.34-5.1-17.32-5.44c-5.68-0.32-11.41-2.07-16.55-5.06c-0.71-0.45-10.19-6.49-15.5-10.45
		c0.57-0.46,1.18-0.87,1.82-1.24c6.3-3.64,18.28-4.75,18.38-4.74l2.65,0.36l-0.66-2.92c-1.05-4.64-0.55-18.88,2.66-23.94
		c7.25-2.2,23.3,11.1,27.92,14.67c-0.78-5.78-4.28-26.33,1.26-31.51c5.99-0.24,19.06,6.15,22.55,9.39l2.2,2.04l1.01-2.47
		c0.04-0.09,6.82-9.81,13.12-13.45c0.64-0.37,1.3-0.69,1.98-0.95c0.77,6.59,1.27,17.82,1.3,18.65c0.02,5.95-1.33,11.78-3.89,16.86
		c-2.7,5.36-6.7,9.69-3.95,17.72l19.03,64.71c0.28,1.44,1.14,2.75,2.51,3.54c2.51,1.45,5.73,0.59,7.18-1.92
		c0.29-0.51,0.47-1.05,0.58-1.59l0.08,0l19.04-64.74c2.75-8.03-1.25-12.37-3.95-17.72c-2.56-5.08-3.91-10.91-3.89-16.86
		c0.04-0.84,0.53-12.07,1.3-18.65c0.68,0.26,1.35,0.59,1.98,0.95c6.3,3.64,13.08,13.36,13.12,13.45l1.01,2.47l2.2-2.04
		c0.89-0.82,2.4-1.85,4.25-2.92c5.43-3.14,13.84-6.65,18.3-6.47c5.53,5.18,2.04,25.73,1.26,31.51c2.66-2.06,9.14-7.37,15.54-11.06
		c4.68-2.7,9.31-4.54,12.38-3.61c3.2,5.06,3.71,19.3,2.66,23.94l-0.66,2.92l2.65-0.36c0.1-0.01,12.08,1.1,18.38,4.74
		c0.64,0.37,1.25,0.78,1.82,1.24c-5.32,3.96-14.8,10-15.5,10.45c-0.03,0.02-0.06,0.03-0.09,0.05c-5.12,2.96-10.81,4.69-16.46,5.01
		c-4.57,0.26-9-0.44-13.32,2.06c-1.34,0.78-2.68,1.86-4,3.38l-46.05,49.14l0.02,0.03c-0.26,0.28-0.49,0.58-0.69,0.92
		c-1.45,2.51-0.59,5.73,1.92,7.18c1.57,0.91,3.42,0.91,4.94,0.17l64.07-15.51c1.98-0.39,3.58-1,4.93-1.78
		c4.32-2.5,5.94-6.68,8.44-10.51c3.1-4.73,7.45-8.8,12.57-11.75c0.03-0.02,0.06-0.03,0.09-0.05c0.74-0.39,10.72-5.57,16.81-8.2
		c0.11,0.73,0.16,1.46,0.16,2.19c0,7.27-5.03,18.01-5.09,18.09l-1.64,2.11l2.86,0.88c4.54,1.41,16.62,9.53,19.4,14.84
		c-0.73,3.12-4.64,6.21-9.31,8.91c-6.4,3.69-14.23,6.65-17.35,7.93c5.39,2.21,24.94,9.46,26.66,16.84
		C311.92,187.04,305.48,191.82,300.22,194.86z"/>
</g>
</svg>
