<?xml version="1.0" encoding="utf-8"?>
<!-- Generator: Adobe Illustrator 23.1.0, SVG Export Plug-In . SVG Version: 6.00 Build 0)  -->
<svg version="1.1" id="Lager_1" xmlns="http://www.w3.org/2000/svg" xmlns:xlink="http://www.w3.org/1999/xlink" x="0px" y="0px"
	 viewBox="0 0 1288.44 340.16" style="enable-background:new 0 0 1288.44 340.16;" xml:space="preserve">
<style type="text/css">
	.st0{fill:#FFFFFF;}
</style>
<g>
	<circle class="st0" cx="167.96" cy="166.32" r="8.68"/>
	<path class="st0" d="M324.57,180.85c-1.33-5.7-5.45-10.23-11.88-14.35c4.89-3.14,10.34-7.74,11.88-14.34l0.93-3.98l-1.9-3.62
		c-2.98-5.69-10.59-11.87-17.24-15.96c1.96-5.72,2.96-10.71,2.96-14.86c0-1.32-0.1-2.63-0.3-3.89l-2.19-14.03l-13.04,5.62
		c-6.4,2.76-16.41,7.96-17.53,8.55l-0.2,0.11l-0.2,0.11l-0.11,0.06c-6.6,3.81-12.23,9.09-16.27,15.25c-0.72,1.1-1.35,2.17-1.91,3.12
		c-1.25,2.12-2.05,3.44-2.84,3.89c-0.35,0.2-0.89,0.38-1.54,0.51l-0.24,0.05l-0.24,0.06l-46.33,11.22l32.74-34.93l0.13-0.14
		l0.13-0.15c0.44-0.5,0.86-0.88,1.21-1.08c0.78-0.45,2.33-0.49,4.79-0.51c1.1-0.01,2.34-0.02,3.65-0.09
		c7.36-0.42,14.74-2.65,21.34-6.46l0.11-0.06l0.2-0.11l0.19-0.12c1.07-0.68,10.58-6.75,16.17-10.91l11.39-8.48l-11.06-8.91
		c-0.99-0.8-2.07-1.54-3.22-2.2c-3.58-2.06-8.42-3.71-14.39-4.91c-0.04-7.52-1.24-17.01-4.83-22.69l-2.19-3.46l-3.91-1.19
		c-6.48-1.97-13.19,0.46-18.35,3.12c-0.35-7.63-2.22-13.46-6.49-17.46l-2.99-2.8l-4.09-0.17c-7.9-0.32-18.05,4.58-22.45,6.94
		c-3.97-4.55-7.79-7.91-11.37-9.97c-1.14-0.66-2.33-1.23-3.51-1.69l-13.24-5.12l-1.65,14.11c-0.81,6.91-1.31,18.19-1.37,19.46
		l-0.01,0.22l0,0.22c-0.02,7.67,1.73,15.23,5.07,21.85c0.59,1.17,1.2,2.25,1.74,3.21c2.22,3.92,2.22,4.24,1.62,5.99l-0.08,0.23
		l-0.07,0.23l-13.65,46.42l-13.65-46.42l-0.07-0.23l-0.08-0.23c-0.6-1.75-0.59-2.08,1.62-6c0.54-0.95,1.15-2.04,1.74-3.21
		c3.34-6.62,5.09-14.18,5.07-21.85l0-0.22l-0.01-0.22c-0.05-1.26-0.56-12.54-1.37-19.46l-1.65-14.1l-13.24,5.12
		c-1.19,0.46-2.37,1.03-3.51,1.69c-3.59,2.07-7.41,5.43-11.39,9.99c-6.87-3.72-16.02-7.21-22.44-6.95l-4.09,0.17l-2.99,2.8
		c-4.27,4-6.13,9.83-6.49,17.45c-6.78-3.5-12.76-4.8-18.36-3.1l-3.91,1.19l-2.19,3.46c-3.59,5.68-4.79,15.17-4.83,22.69
		c-5.98,1.19-10.82,2.84-14.39,4.91c-1.14,0.66-2.23,1.4-3.22,2.2l-11.06,8.91l11.39,8.48c5.58,4.16,15.1,10.23,16.17,10.91
		l0.19,0.12l0.19,0.11c6.63,3.85,14.05,6.11,21.46,6.53c1.31,0.07,2.55,0.08,3.65,0.09c4.5,0.04,4.78,0.19,6,1.59l0.13,0.15
		l0.13,0.14l32.74,34.93L83.2,133.15l-0.24-0.06l-0.24-0.05c-1.82-0.36-2.1-0.53-4.38-4.4c-0.56-0.95-1.19-2.02-1.91-3.11
		c-4.06-6.2-9.73-11.5-16.38-15.32l-0.19-0.11l-0.2-0.1c-1.12-0.58-11.14-5.79-17.53-8.55l-13.04-5.63l-2.19,14.03
		c-0.2,1.26-0.3,2.56-0.3,3.89c0,4.14,0.99,9.12,2.95,14.84c-4.25,2.63-13.56,8.97-17.23,15.98l-1.9,3.62l0.93,3.98
		c1.33,5.7,5.45,10.23,11.88,14.35c-4.89,3.14-10.34,7.74-11.88,14.34l-0.93,3.98l1.9,3.62c3.12,5.95,10.74,11.73,17.23,15.53
		c-1.96,5.77-2.95,10.79-2.95,14.92c0,1.32,0.1,2.63,0.3,3.89l2.19,14.03l13.04-5.62c6.4-2.76,16.41-7.96,17.53-8.55l0.2-0.11
		l0.2-0.11l0.11-0.06c6.6-3.81,12.23-9.09,16.27-15.25c0.72-1.1,1.35-2.17,1.91-3.12c1.25-2.12,2.05-3.44,2.84-3.89
		c0.35-0.2,0.89-0.38,1.54-0.51l0.19-0.04l0.19-0.04l46.62-10.89l-32.88,34.51l-0.17,0.18l-0.16,0.18c-0.44,0.5-0.86,0.88-1.21,1.08
		c-0.78,0.45-2.33,0.49-4.79,0.51c-1.1,0.01-2.34,0.02-3.65,0.09c-7.36,0.42-14.74,2.65-21.34,6.46l-0.11,0.06l-0.2,0.11l-0.19,0.12
		c-1.07,0.68-10.59,6.76-16.17,10.91l-11.39,8.48l11.06,8.91c0.99,0.8,2.07,1.54,3.22,2.2c3.59,2.07,8.41,3.71,14.34,4.87
		c0.22,7.81,1.76,17.48,5.2,22.91l2.19,3.46l3.91,1.19c6.48,1.97,13.19-0.46,18.35-3.12c0.35,7.63,2.22,13.46,6.49,17.46l2.99,2.8
		l4.09,0.17c7.78,0.32,17.59-4.61,22.08-7.14c4.02,4.57,7.86,7.93,11.43,10c1.15,0.66,2.33,1.23,3.51,1.69l13.24,5.12l1.65-14.1
		c0.81-6.91,1.31-18.19,1.37-19.46l0.01-0.22l0-0.22c0.02-7.67-1.73-15.23-5.07-21.85c-0.59-1.17-1.2-2.25-1.74-3.21
		c-2.22-3.92-2.22-4.24-1.62-5.99l0.06-0.19l0.06-0.19l13.68-45.14l13.68,45.14l0.06,0.19l0.06,0.19c0.6,1.75,0.59,2.08-1.62,5.99
		c-0.54,0.95-1.15,2.04-1.74,3.21c-3.34,6.62-5.09,14.18-5.07,21.85l0,0.22l0.01,0.22c0.05,1.26,0.56,12.54,1.37,19.46l1.65,14.1
		l13.24-5.12c1.19-0.46,2.37-1.03,3.51-1.69c3.58-2.06,7.42-5.43,11.45-10.01c6.53,3.72,15.35,7.43,22.06,7.16l4.09-0.17l2.99-2.8
		c4.27-4,6.13-9.83,6.49-17.45c6.78,3.5,12.76,4.8,18.36,3.1l3.91-1.19l2.19-3.46c3.44-5.43,4.98-15.1,5.2-22.91
		c5.93-1.16,10.76-2.79,14.34-4.87c1.14-0.66,2.23-1.4,3.22-2.2l11.06-8.91l-11.39-8.48c-5.58-4.16-15.1-10.23-16.17-10.91
		l-0.19-0.12l-0.19-0.11c-6.63-3.85-14.05-6.11-21.46-6.53c-1.31-0.07-2.55-0.08-3.65-0.09c-4.5-0.04-4.78-0.19-6-1.59l-0.16-0.18
		l-0.17-0.18l-32.88-34.51l46.62,10.89l0.19,0.04l0.19,0.04c1.82,0.36,2.1,0.53,4.38,4.4c0.56,0.95,1.19,2.02,1.91,3.11
		c4.06,6.2,9.73,11.5,16.38,15.32l0.19,0.11l0.2,0.1c1.12,0.58,11.14,5.79,17.53,8.55l13.04,5.63l2.19-14.03
		c0.2-1.26,0.3-2.56,0.3-3.89c0-4.12-0.99-9.13-2.94-14.9c4.43-2.62,13.61-8.65,17.22-15.55l1.9-3.62L324.57,180.85z M300.22,194.86
		c-2.3,1.33-4.38,2.33-5.76,2.75l-2.86,0.88l1.64,2.11c0.06,0.08,5.09,11.01,5.09,18.29c0,0.73-0.05,1.47-0.16,2.19
		c-6.09-2.63-16.06-7.81-16.81-8.2c-5.16-2.96-9.54-7.04-12.66-11.81c-3.29-5.02-5.04-10.65-13.37-12.28l-65.58-15.31l-0.01,0.01
		c-2.16-0.46-4.47,0.47-5.63,2.49c-1.31,2.27-0.72,5.1,1.25,6.7l45.77,48.04c5.58,6.4,11.34,5.1,17.32,5.44
		c5.68,0.32,11.41,2.07,16.55,5.06c0.71,0.45,10.19,6.49,15.5,10.45c-0.57,0.46-1.18,0.87-1.82,1.24
		c-6.3,3.64-18.11,4.65-18.21,4.64l-2.65-0.36l0.66,2.92c1.05,4.64,0.06,19.16-3.15,24.22c-7.25,2.2-23.3-11.1-27.92-14.67
		c0.78,5.78,4.28,26.33-1.26,31.51c-5.99,0.24-18.57-6.44-22.06-9.67l-2.2-2.04l-1.01,2.47c-0.04,0.09-6.99,9.91-13.29,13.55
		c-0.64,0.37-1.3,0.69-1.98,0.95c-0.77-6.59-1.27-17.82-1.3-18.65c-0.02-5.95,1.33-11.78,3.89-16.86c2.7-5.36,6.7-9.69,3.95-17.72
		l-19.12-63.11c-0.05-0.21-0.11-0.41-0.19-0.62l-0.22-0.72l-0.1,0c-0.45-0.83-1.11-1.56-1.98-2.06c-2.51-1.45-5.73-0.59-7.18,1.92
		c-0.03,0.04-0.04,0.09-0.06,0.14h-0.03l-0.07,0.22c-0.26,0.54-0.44,1.09-0.5,1.66l-18.96,62.57c-2.75,8.03,1.25,12.37,3.95,17.72
		c2.56,5.08,3.91,10.91,3.89,16.86c-0.04,0.84-0.53,12.07-1.3,18.65c-0.68-0.26-1.35-0.59-1.98-0.95
		c-6.3-3.64-13.26-13.46-13.29-13.55l-1.01-2.47l-2.2,2.04c-1.06,0.98-2.96,2.28-5.27,3.61c-5.27,3.04-12.63,6.23-16.79,6.06
		c-5.53-5.18-2.04-25.73-1.26-31.51c-2.66,2.06-9.14,7.37-15.54,11.06c-4.68,2.7-9.31,4.54-12.38,3.61
		c-3.2-5.06-4.2-19.58-3.15-24.22l0.66-2.92l-2.65,0.36c-0.1,0.01-11.91-1-18.21-4.64c-0.64-0.37-1.25-0.78-1.82-1.24
		c5.32-3.96,14.8-10,15.5-10.45c0.03-0.02,0.06-0.03,0.09-0.05c5.12-2.96,10.81-4.69,16.46-5.01c4.57-0.26,9,0.44,13.32-2.06
		c1.34-0.78,2.68-1.86,4-3.38l46.03-48.32c0.08-0.08,0.16-0.16,0.24-0.25l0.27-0.29l-0.03-0.05c0.11-0.15,0.22-0.28,0.32-0.44
		c1.45-2.51,0.59-5.73-1.92-7.18c-1.09-0.63-2.31-0.8-3.46-0.61l-0.06-0.1l-65.58,15.31c-1.98,0.39-3.58,1-4.93,1.78
		c-4.32,2.5-5.94,6.68-8.44,10.51c-3.1,4.73-7.45,8.8-12.57,11.75c-0.03,0.02-0.06,0.03-0.09,0.05c-0.74,0.39-10.72,5.57-16.81,8.2
		c-0.11-0.73-0.16-1.46-0.16-2.19c0-7.27,5.03-18.21,5.09-18.29l1.64-2.11l-2.86-0.88c-4.54-1.41-16.62-8.96-19.4-14.27
		c0.73-3.12,4.64-6.21,9.31-8.91c6.4-3.69,14.23-6.65,17.35-7.93c-5.39-2.21-24.94-9.46-26.66-16.84
		c2.07-3.96,9.31-9.48,14.75-12.61c1.86-1.07,3.5-1.86,4.66-2.22l2.86-0.88l-1.64-2.11c-0.06-0.08-5.09-10.81-5.09-18.09
		c0-0.73,0.05-1.47,0.16-2.19c6.09,2.63,16.06,7.81,16.81,8.2c5.16,2.96,9.54,7.04,12.66,11.81c3.29,5.02,5.04,10.65,13.37,12.28
		l64.62,15.65c0.15,0.05,0.3,0.07,0.44,0.11l0.52,0.13l0-0.01c2.06,0.28,4.17-0.66,5.27-2.57c1.15-2,0.83-4.42-0.61-6.07l0.01-0.02
		l-46.05-49.14c-5.58-6.4-11.34-5.1-17.32-5.44c-5.68-0.32-11.41-2.07-16.55-5.06c-0.71-0.45-10.19-6.49-15.5-10.45
		c0.57-0.46,1.18-0.87,1.82-1.24c6.3-3.64,18.28-4.75,18.38-4.74l2.65,0.36l-0.66-2.92c-1.05-4.64-0.55-18.88,2.66-23.94
		c7.25-2.2,23.3,11.1,27.92,14.67c-0.78-5.78-4.28-26.33,1.26-31.51c5.99-0.24,19.06,6.15,22.55,9.39l2.2,2.04l1.01-2.47
		c0.04-0.09,6.82-9.81,13.12-13.45c0.64-0.37,1.3-0.69,1.98-0.95c0.77,6.59,1.27,17.82,1.3,18.65c0.02,5.95-1.33,11.78-3.89,16.86
		c-2.7,5.36-6.7,9.69-3.95,17.72l19.03,64.71c0.28,1.44,1.14,2.75,2.51,3.54c2.51,1.45,5.73,0.59,7.18-1.92
		c0.29-0.51,0.47-1.05,0.58-1.59l0.08,0l19.04-64.74c2.75-8.03-1.25-12.37-3.95-17.72c-2.56-5.08-3.91-10.91-3.89-16.86
		c0.04-0.84,0.53-12.07,1.3-18.65c0.68,0.26,1.35,0.59,1.98,0.95c6.3,3.64,13.08,13.36,13.12,13.45l1.01,2.47l2.2-2.04
		c0.89-0.82,2.4-1.85,4.25-2.92c5.43-3.14,13.84-6.65,18.3-6.47c5.53,5.18,2.04,25.73,1.26,31.51c2.66-2.06,9.14-7.37,15.54-11.06
		c4.68-2.7,9.31-4.54,12.38-3.61c3.2,5.06,3.71,19.3,2.66,23.94l-0.66,2.92l2.65-0.36c0.1-0.01,12.08,1.1,18.38,4.74
		c0.64,0.37,1.25,0.78,1.82,1.24c-5.32,3.96-14.8,10-15.5,10.45c-0.03,0.02-0.06,0.03-0.09,0.05c-5.12,2.96-10.81,4.69-16.46,5.01
		c-4.57,0.26-9-0.44-13.32,2.06c-1.34,0.78-2.68,1.86-4,3.38l-46.05,49.14l0.02,0.03c-0.26,0.28-0.49,0.58-0.69,0.92
		c-1.45,2.51-0.59,5.73,1.92,7.18c1.57,0.91,3.42,0.91,4.94,0.17l64.07-15.51c1.98-0.39,3.58-1,4.93-1.78
		c4.32-2.5,5.94-6.68,8.44-10.51c3.1-4.73,7.45-8.8,12.57-11.75c0.03-0.02,0.06-0.03,0.09-0.05c0.74-0.39,10.72-5.57,16.81-8.2
		c0.11,0.73,0.16,1.46,0.16,2.19c0,7.27-5.03,18.01-5.09,18.09l-1.64,2.11l2.86,0.88c4.54,1.41,16.62,9.53,19.4,14.84
		c-0.73,3.12-4.64,6.21-9.31,8.91c-6.4,3.69-14.23,6.65-17.35,7.93c5.39,2.21,24.94,9.46,26.66,16.84
		C311.92,187.04,305.48,191.82,300.22,194.86z"/>
</g>
<g>
	<g>
		<g>
			<path class="st0" d="M383.92,48.6h-18.14h-0.5v0.5v78.12v0.5h0.5h10.79h0.5v-0.5V94.23h4.64c5.6,0,9.47,0.64,11.5,1.91
				c2.27,1.5,4.77,5.17,7.41,10.91l9.44,20.38l0.14,0.29h0.32h11.52h0.79l-0.33-0.72l-10.54-22.6c-2.75-5.89-4.87-9.5-6.48-11.04
				c-1.37-1.31-2.84-2.23-4.39-2.77c4.07-0.92,7.56-2.85,10.41-5.77c3.51-3.59,5.29-8.28,5.29-13.94c0-6.44-2.2-11.8-6.53-15.94
				c-3-2.87-6.92-4.76-11.66-5.64C395.8,48.84,390.86,48.6,383.92,48.6L383.92,48.6z M377.07,57.93h7.95c4.36,0,7.42,0.15,9.1,0.46
				c2.99,0.53,5.46,1.7,7.34,3.5c2.26,2.16,3.4,5.19,3.4,9.01c0,3.82-1.31,7.01-3.89,9.47c-2.2,2.1-5.29,3.48-9.17,4.08
				c-2.16,0.31-6.02,0.46-11.44,0.46h-3.3V57.93L377.07,57.93z"/>
		</g>
		<g>
			<path class="st0" d="M454.19,68.39c-8.37,0-15.22,2.9-20.36,8.61c-5.13,5.7-7.73,13.29-7.73,22.58c0,8.89,2.52,16.17,7.49,21.63
				c5.14,5.71,12.28,8.61,21.22,8.61c8.07,0,15.42-2.11,21.85-6.26l0.4-0.26l-0.24-0.42l-3.92-6.9l-0.24-0.41l-0.43,0.21
				c-6.11,2.96-11.69,4.47-16.57,4.47c-5.87,0-10.53-1.86-13.84-5.54c-2.83-3.18-4.27-7.3-4.29-12.23h40.81h0.51v-0.51
				c0-0.22,0.02-0.75,0.12-2.04c0.08-1.13,0.12-1.84,0.12-2.24c0-9.04-2.25-16.25-6.68-21.44
				C467.96,71.04,461.83,68.39,454.19,68.39L454.19,68.39z M437.71,93.48c0.48-4.75,2.22-8.61,5.19-11.49
				c3.07-2.98,6.91-4.49,11.41-4.49c4.84,0,8.39,1.87,10.85,5.71c1.82,2.87,2.78,6.33,2.86,10.28H437.71L437.71,93.48z"/>
		</g>
		<g>
			<path class="st0" d="M518.76,68.39c-8.93,0-16.37,2.99-22.12,8.89c-5.75,5.9-8.66,13.44-8.66,22.41c0,8.18,2.35,15.05,6.99,20.43
				c4.9,5.64,11.38,8.5,19.26,8.5c5.06,0,10.33-1.41,15.67-4.18v3.32c0,4.14-0.2,7.14-0.6,8.93c-0.47,2.27-1.53,4.18-3.16,5.68
				c-2.75,2.51-6.88,3.79-12.28,3.79c-4.08,0-8.26-0.91-12.43-2.69c-0.17-0.08-1.15-0.6-5.59-3.07l-0.41-0.23l-0.26,0.39l-4.54,6.78
				l-0.22,0.33l0.26,0.29c1.12,1.25,3.42,2.65,7.04,4.29c5.28,2.32,11.04,3.49,17.13,3.49c8.84,0,15.72-2.33,20.46-6.92
				c2.59-2.6,4.37-5.88,5.29-9.76c0.5-2.41,0.75-6.05,0.75-10.82V74.25v-0.34l-0.31-0.13C532.67,70.21,525.18,68.39,518.76,68.39
				L518.76,68.39z M516.07,119.17c-4.81,0-8.8-1.82-11.87-5.41c-3.09-3.61-4.66-8.46-4.66-14.41c0-6.42,1.77-11.65,5.26-15.53
				c3.48-3.87,8.09-5.84,13.72-5.84c3.89,0,7.71,0.74,11.38,2.21v34.45C525.03,117.64,520.37,119.17,516.07,119.17L516.07,119.17z"
				/>
		</g>
		<g>
			<path class="st0" d="M562.4,48c-1.93,0-3.57,0.65-4.89,1.93c-1.32,1.28-1.99,2.89-1.99,4.76c0,1.88,0.67,3.48,1.99,4.77
				c1.32,1.28,2.96,1.93,4.89,1.93c1.93,0,3.57-0.65,4.89-1.93c1.32-1.28,1.99-2.89,1.99-4.76c0-1.88-0.67-3.48-1.99-4.76
				C565.98,48.65,564.33,48,562.4,48L562.4,48z M568.18,69.94h-0.51h-10.42h-0.51v0.51V128v0.51h0.51h10.42h0.51V128V70.45V69.94
				L568.18,69.94z"/>
		</g>
		<g>
			<path class="st0" d="M608.49,68.39c-8.69,0-15.76,2.88-21.03,8.55c-5.26,5.66-7.92,13.16-7.92,22.28c0,9.13,2.6,16.59,7.73,22.16
				c5.14,5.59,11.99,8.43,20.36,8.43c8.69,0,15.74-2.83,20.97-8.43c5.22-5.58,7.86-13.04,7.86-22.17c0-9.28-2.58-16.82-7.67-22.4
				C623.69,71.23,616.86,68.39,608.49,68.39L608.49,68.39z M608.25,120.36c-4.97,0-9.12-1.98-12.36-5.88
				c-3.26-3.93-4.91-9.18-4.91-15.61c0-6.35,1.55-11.53,4.61-15.38c3.03-3.82,7.16-5.75,12.29-5.75c4.96,0,9.1,2,12.29,5.94
				c3.22,3.97,4.85,9.25,4.85,15.67c0,6.51-1.49,11.71-4.43,15.44C617.69,118.48,613.54,120.36,608.25,120.36L608.25,120.36z"/>
		</g>
		<g>
			<path class="st0" d="M675.79,68.39c-6.16,0-12.22,1.82-18,5.41v-3.35v-0.51h-0.51h-9.32h-0.51v0.51V128v0.51h0.51h10.42h0.51V128
				V82.72c0.97-0.66,2.6-1.47,4.84-2.41c3.68-1.55,7.12-2.34,10.22-2.34c3.44,0,6.13,0.91,7.98,2.71c1.3,1.26,2.16,3.13,2.55,5.54
				c0.32,1.73,0.48,4.78,0.48,9.07V128v0.51h0.51h10.42h0.51V128V94.59c0-5.4-0.29-9.4-0.87-11.89c-0.84-3.57-2.58-6.65-5.17-9.17
				C686.85,70.12,681.95,68.39,675.79,68.39L675.79,68.39z"/>
		</g>
	</g>
	<g>
		<g>
			<path class="st0" d="M460.2,232.24c0,17.48-5.07,31.65-15.2,42.52c-10.13,10.87-23.26,16.3-39.37,16.3
				c-15.64,0-28.53-5.43-38.66-16.3c-10.13-10.87-15.2-24.76-15.2-41.68c0-17.25,5.07-31.32,15.2-42.19
				c10.13-10.87,23.31-16.3,39.55-16.3c15.76,0,28.64,5.38,38.66,16.13C455.2,201.48,460.2,215.32,460.2,232.24z M443.85,231.73
				c0-13.33-3.55-24.06-10.66-32.19c-7.11-8.12-16.35-12.18-27.73-12.18c-11.26,0-20.29,4.15-27.1,12.44
				c-6.82,8.29-10.22,19.27-10.22,32.94c0,13.45,3.61,24.37,10.84,32.77c7.23,8.4,16.35,12.61,27.37,12.61
				c11.97,0,21.33-4.42,28.08-13.28C440.71,256.44,443.85,245.4,443.85,231.73z M401.19,159.14c0,2.5-0.95,4.64-2.84,6.4
				c-1.9,1.76-4.15,2.64-6.75,2.64c-2.61,0-4.83-0.88-6.67-2.64c-1.84-1.76-2.75-3.89-2.75-6.4c0-2.5,0.92-4.63,2.75-6.4
				c1.83-1.76,4.06-2.64,6.67-2.64c2.6,0,4.86,0.88,6.75,2.64C400.24,154.5,401.19,156.63,401.19,159.14z M430.7,159.14
				c0,2.5-0.95,4.64-2.84,6.4c-1.9,1.76-4.15,2.64-6.75,2.64c-2.61,0-4.83-0.88-6.67-2.64c-1.84-1.76-2.75-3.89-2.75-6.4
				c0-2.5,0.92-4.63,2.75-6.4c1.84-1.76,4.06-2.64,6.67-2.64c2.6,0,4.86,0.88,6.75,2.64C429.75,154.5,430.7,156.63,430.7,159.14z"/>
		</g>
		<g>
			<path class="st0" d="M531.65,265.68c0,8.06-3.05,14.46-9.15,19.2c-6.1,4.74-13.54,7.11-22.31,7.11c-7.23,0-14.16-1.31-20.8-3.91
				c-4.03-1.66-6.93-3.2-8.71-4.62l5.69-10.49c8.06,4.38,15.7,6.58,22.93,6.58c4.74,0,8.68-1.18,11.82-3.55
				c3.14-2.37,4.71-5.45,4.71-9.24c0-4.74-3.67-8.89-11.02-12.44c-6.75-3.2-13.57-6.46-20.44-9.78
				c-7.35-4.74-11.02-11.02-11.02-18.84c0-7.23,2.81-13.09,8.44-17.6c5.63-4.5,12.83-6.75,21.6-6.75c11.73,0,20.79,2.55,27.19,7.64
				l-5.69,10.13c-6.87-3.91-13.69-5.87-20.44-5.87c-5.1,0-9.01,1.1-11.73,3.29c-2.73,2.19-4.09,4.95-4.09,8.27
				c0,4.38,3.73,8.35,11.2,11.91c13.27,6.28,20.14,9.6,20.62,9.95C527.92,251.52,531.65,257.86,531.65,265.68z"/>
		</g>
		<g>
			<path class="st0" d="M599.19,287.18c-5.57,3.08-11.73,4.62-18.48,4.62c-8.53,0-14.99-2.19-19.37-6.58
				c-2.73-2.72-4.44-6.46-5.15-11.2c-0.36-2.13-0.53-6.81-0.53-14.04v-43.9h-15.11v-12.44h15.11v-24.17h15.11v24.17h26.48v12.44
				h-26.48v46.39c0,5.57,0.59,9.36,1.78,11.38c1.78,3.32,5.39,4.98,10.84,4.98c2.84,0,6.81-0.77,11.91-2.31L599.19,287.18z"/>
		</g>
		<g>
			<path class="st0" d="M680.24,244.35c0,0.59-0.06,1.69-0.18,3.29c-0.12,1.6-0.18,2.64-0.18,3.11h-59.9
				c-0.12,7.94,2.01,14.46,6.4,19.55c4.98,5.69,11.85,8.53,20.62,8.53c7.23,0,15.34-2.25,24.35-6.75l5.69,10.31
				c-9.24,6.16-19.67,9.24-31.28,9.24c-12.8,0-22.87-4.2-30.22-12.62c-7.11-8.06-10.66-18.66-10.66-31.82
				c0-13.74,3.67-24.82,11.02-33.24c7.35-8.41,17-12.62,28.97-12.62c10.9,0,19.52,3.82,25.86,11.46
				C677.07,220.44,680.24,230.96,680.24,244.35z M665.67,238.84c0-6.4-1.42-11.91-4.27-16.53c-3.67-5.92-9.13-8.89-16.35-8.89
				c-6.75,0-12.44,2.31-17.06,6.93c-4.62,4.62-7.23,10.78-7.82,18.49H665.67z"/>
			<path class="st0" d="M619.97,238.82l-0.02,0.22"/>
		</g>
		<g>
			<path class="st0" d="M746.89,202.94l-3.55,12.09c-2.02-0.36-4.15-0.53-6.4-0.53c-9.84,0-18.31,4.68-25.42,14.04v61.14h-15.11
				v-86.03h13.51v11.2c1.89-2.49,4.44-4.86,7.64-7.11c6.04-4.27,12.74-6.4,20.08-6.4C740.97,201.34,744.05,201.87,746.89,202.94z"/>
		</g>
		<g>
			<path class="st0" d="M824.4,290.03c0,7.11-0.36,12.44-1.07,16c-1.31,5.69-3.79,10.43-7.46,14.22
				c-6.75,6.75-16.47,10.13-29.15,10.13c-8.77,0-16.95-1.72-24.53-5.15c-5.1-2.37-8.41-4.44-9.95-6.22l6.58-10.13
				c4.98,2.84,7.7,4.38,8.18,4.62c6.16,2.72,12.26,4.09,18.31,4.09c8.06,0,14.16-1.96,18.31-5.87c2.49-2.37,4.09-5.33,4.8-8.89
				c0.59-2.73,0.89-7.23,0.89-13.51v-6.22c-8.06,4.5-15.88,6.75-23.46,6.75c-11.26,0-20.38-4.15-27.37-12.44
				c-6.64-7.94-9.95-17.95-9.95-30.04c0-13.27,4.12-24.26,12.35-32.97c8.23-8.71,18.75-13.06,31.55-13.06c9.24,0,19.91,2.67,31.99,8
				V290.03z M809.3,270.12v-52.43c-5.57-2.37-11.32-3.55-17.24-3.55c-8.42,0-15.23,2.99-20.44,8.98
				c-5.22,5.98-7.82,13.89-7.82,23.73c0,9.13,2.31,16.47,6.93,22.04c4.62,5.57,10.54,8.35,17.77,8.35
				C795.02,277.23,801.95,274.86,809.3,270.12z"/>
		</g>
		<g>
			<path class="st0" d="M921.63,246.66c0,13.51-3.73,24.38-11.2,32.62c-7.46,8.24-17.42,12.35-29.86,12.35
				c-11.97,0-21.63-4.12-28.97-12.35c-7.35-8.23-11.02-19.11-11.02-32.62s3.76-24.44,11.29-32.79c7.52-8.35,17.51-12.53,29.95-12.53
				c11.97,0,21.6,4.12,28.88,12.35C917.98,221.93,921.63,232.91,921.63,246.66z M906.52,246.84c0-9.83-2.4-17.8-7.2-23.91
				c-4.8-6.1-10.93-9.15-18.4-9.15c-7.7,0-13.84,2.96-18.4,8.89c-4.56,5.93-6.84,13.75-6.84,23.46c0,9.84,2.43,17.77,7.29,23.82
				c4.86,6.04,11.02,9.06,18.48,9.06c7.94,0,14.1-2.87,18.48-8.62C904.32,264.64,906.52,256.79,906.52,246.84z M876.12,184.61
				c0,2.61-0.95,4.83-2.84,6.66c-1.9,1.84-4.15,2.75-6.75,2.75c-2.61,0-4.83-0.92-6.67-2.75c-1.84-1.84-2.75-4.06-2.75-6.66
				c0-2.61,0.92-4.83,2.75-6.67c1.83-1.83,4.06-2.75,6.67-2.75c2.6,0,4.86,0.92,6.75,2.75
				C875.17,179.78,876.12,182.01,876.12,184.61z M905.63,184.61c0,2.61-0.95,4.83-2.84,6.66c-1.9,1.84-4.15,2.75-6.75,2.75
				c-2.61,0-4.83-0.92-6.67-2.75c-1.84-1.84-2.75-4.06-2.75-6.66c0-2.61,0.92-4.83,2.75-6.67c1.84-1.83,4.06-2.75,6.67-2.75
				c2.61,0,4.86,0.92,6.75,2.75C904.68,179.78,905.63,182.01,905.63,184.61z"/>
		</g>
		<g>
			<path class="st0" d="M985.26,287.18c-5.57,3.08-11.73,4.62-18.48,4.62c-8.53,0-14.99-2.19-19.37-6.58
				c-2.73-2.72-4.44-6.46-5.16-11.2c-0.36-2.13-0.53-6.81-0.53-14.04v-43.9H926.6v-12.44h15.11v-24.17h15.11v24.17h26.48v12.44
				h-26.48v46.39c0,5.57,0.59,9.36,1.78,11.38c1.78,3.32,5.39,4.98,10.84,4.98c2.84,0,6.81-0.77,11.91-2.31L985.26,287.18z"/>
		</g>
		<g>
			<path class="st0" d="M1013.42,289.67h-15.11V161.52h15.11V289.67z"/>
		</g>
		<g>
			<path class="st0" d="M1096.96,289.67h-13.51v-6.4c-9.24,5.45-18.01,8.18-26.3,8.18c-8.3,0-14.99-2.46-20.08-7.38
				c-5.1-4.92-7.64-11.34-7.64-19.29c0-19.43,16.35-29.15,49.06-29.15h3.91v-5.51c0-5.69-1.19-9.71-3.55-12.09
				c-2.96-2.96-8-4.44-15.11-4.44c-7.82,0-15.7,2.25-23.64,6.75l-5.51-10.13c1.66-1.42,4.56-3.02,8.71-4.8
				c6.75-2.72,14.04-4.09,21.86-4.09c10.78,0,19.08,2.91,24.88,8.71c2.96,2.96,4.92,6.58,5.87,10.84c0.71,3.08,1.07,8,1.07,14.75
				V289.67z M1082.38,272.79v-25.77h-4.44c-15.17,0-25.24,2.49-30.21,7.46c-2.61,2.61-3.91,5.93-3.91,9.95
				c0,4.39,1.51,7.94,4.53,10.67c3.02,2.73,7.2,4.09,12.53,4.09C1066.57,279.19,1073.73,277.05,1082.38,272.79z"/>
		</g>
		<g>
			<path class="st0" d="M1183.87,289.67h-15.11v-48.88c0-6.52-0.24-11.08-0.71-13.69c-0.59-3.79-1.9-6.69-3.91-8.71
				c-2.84-2.84-6.87-4.27-12.09-4.27c-4.62,0-9.66,1.19-15.11,3.55c-3.55,1.54-6.04,2.84-7.46,3.91v68.07h-15.11v-86.03h13.51v6.4
				c8.65-5.8,17.6-8.71,26.84-8.71c8.77,0,15.64,2.49,20.62,7.46c3.67,3.67,6.1,8.12,7.29,13.33c0.83,3.67,1.24,9.54,1.24,17.6
				V289.67z"/>
		</g>
		<g>
			<path class="st0" d="M1273.81,289.67h-13.51v-6.75c-6.75,5.81-14.81,8.71-24.17,8.71c-11.38,0-20.56-4.06-27.55-12.17
				c-6.99-8.12-10.49-18.69-10.49-31.73c0-13.74,3.97-24.91,11.91-33.5c7.94-8.59,17.95-12.89,30.04-12.89
				c6.75,0,12.97,1.72,18.66,5.15v-44.97h15.11V289.67z M1258.7,271.36v-51.54c-5.33-3.79-11.08-5.69-17.24-5.69
				c-8.42,0-15.2,3.02-20.35,9.07c-5.15,6.04-7.73,14.22-7.73,24.53c0,9.24,2.4,16.74,7.2,22.48c4.8,5.75,10.87,8.62,18.22,8.62
				C1244.83,278.83,1251.47,276.34,1258.7,271.36z"/>
		</g>
	</g>
</g>
</svg>
