<?xml version="1.0" encoding="UTF-8" standalone="no"?>
<!DOCTYPE svg PUBLIC "-//W3C//DTD SVG 1.1//EN"
 "http://www.w3.org/Graphics/SVG/1.1/DTD/svg11.dtd">
<!-- Generated by graphviz version 2.40.1 (20161225.0304)
 -->
<!-- Title: dependencies Pages: 1 -->
<svg width="2848pt" height="211pt"
 viewBox="0.00 0.00 2848.00 211.00" xmlns="http://www.w3.org/2000/svg" xmlns:xlink="http://www.w3.org/1999/xlink">
<g id="graph0" class="graph" transform="scale(1 1) rotate(0) translate(4 207)">
<title>dependencies</title>
<polygon fill="#ffffff" stroke="transparent" points="-4,4 -4,-207 2844,-207 2844,4 -4,4"/>
<text text-anchor="start" x="1399.0091" y="-42.4" font-family="sans-serif" font-weight="bold" font-size="14.00" fill="#000000">Legend</text>
<polygon fill="#ffffb3" stroke="transparent" points="1186,-10 1186,-30 1206,-30 1206,-10 1186,-10"/>
<text text-anchor="start" x="1209.629" y="-15.4" font-family="sans-serif" font-size="14.00" fill="#000000"> &#160;Declarations</text>
<polygon fill="#8dd3c7" stroke="transparent" points="1299,-10 1299,-30 1319,-30 1319,-10 1299,-10"/>
<text text-anchor="start" x="1322.7251" y="-15.4" font-family="sans-serif" font-size="14.00" fill="#000000"> &#160;Module</text>
<polygon fill="#80b1d3" stroke="transparent" points="1385,-10 1385,-30 1405,-30 1405,-10 1385,-10"/>
<text text-anchor="start" x="1408.7812" y="-15.4" font-family="sans-serif" font-size="14.00" fill="#000000"> &#160;Bootstrap</text>
<polygon fill="#fdb462" stroke="transparent" points="1482,-10 1482,-30 1502,-30 1502,-10 1482,-10"/>
<text text-anchor="start" x="1505.6732" y="-15.4" font-family="sans-serif" font-size="14.00" fill="#000000"> &#160;Providers</text>
<polygon fill="#fb8072" stroke="transparent" points="1578,-10 1578,-30 1598,-30 1598,-10 1578,-10"/>
<text text-anchor="start" x="1601.7258" y="-15.4" font-family="sans-serif" font-size="14.00" fill="#000000"> &#160;Exports</text>
<g id="clust1" class="cluster">
<title>cluster_ContentModule</title>
<polygon fill="none" stroke="#000000" stroke-dasharray="1,5" points="8,-70 8,-195 2832,-195 2832,-70 8,-70"/>
</g>
<g id="clust2" class="cluster">
<title>cluster_ContentModule_declarations</title>
<polygon fill="none" stroke="#000000" points="16,-78 16,-130 2824,-130 2824,-78 16,-78"/>
</g>
<!-- AutMethodPopupComponent -->
<g id="node1" class="node">
<title>AutMethodPopupComponent</title>
<polygon fill="#ffffb3" stroke="#000000" points="2815.6623,-122 2634.3377,-122 2634.3377,-86 2815.6623,-86 2815.6623,-122"/>
<text text-anchor="middle" x="2725" y="-99.8" font-family="Times,serif" font-size="14.00" fill="#000000">AutMethodPopupComponent</text>
</g>
<!-- ContentModule -->
<g id="node18" class="node">
<title>ContentModule</title>
<polygon fill="#8dd3c7" stroke="#000000" points="1401.8823,-187 1398.8823,-191 1377.8823,-191 1374.8823,-187 1298.1177,-187 1298.1177,-151 1401.8823,-151 1401.8823,-187"/>
<text text-anchor="middle" x="1350" y="-164.8" font-family="Times,serif" font-size="14.00" fill="#000000">ContentModule</text>
</g>
<!-- AutMethodPopupComponent&#45;&gt;ContentModule -->
<g id="edge1" class="edge">
<title>AutMethodPopupComponent&#45;&gt;ContentModule</title>
<path fill="none" stroke="#000000" d="M2725,-122.3228C2725,-145.6602 2725,-183 2725,-183 2725,-183 1412.2226,-183 1412.2226,-183"/>
<polygon fill="#000000" stroke="#000000" points="1412.2226,-179.5001 1402.2226,-183 1412.2226,-186.5001 1412.2226,-179.5001"/>
</g>
<!-- CardCaseNumber -->
<g id="node2" class="node">
<title>CardCaseNumber</title>
<polygon fill="#ffffb3" stroke="#000000" points="2616.295,-122 2499.705,-122 2499.705,-86 2616.295,-86 2616.295,-122"/>
<text text-anchor="middle" x="2558" y="-99.8" font-family="Times,serif" font-size="14.00" fill="#000000">CardCaseNumber</text>
</g>
<!-- CardCaseNumber&#45;&gt;ContentModule -->
<g id="edge2" class="edge">
<title>CardCaseNumber&#45;&gt;ContentModule</title>
<path fill="none" stroke="#000000" d="M2558,-122.1554C2558,-144.3519 2558,-179 2558,-179 2558,-179 1411.9063,-179 1411.9063,-179"/>
<polygon fill="#000000" stroke="#000000" points="1411.9063,-175.5001 1401.9063,-179 1411.9062,-182.5001 1411.9063,-175.5001"/>
</g>
<!-- CardConfirmationComponent -->
<g id="node3" class="node">
<title>CardConfirmationComponent</title>
<polygon fill="#ffffb3" stroke="#000000" points="2481.979,-122 2298.021,-122 2298.021,-86 2481.979,-86 2481.979,-122"/>
<text text-anchor="middle" x="2390" y="-99.8" font-family="Times,serif" font-size="14.00" fill="#000000">CardConfirmationComponent</text>
</g>
<!-- CardConfirmationComponent&#45;&gt;ContentModule -->
<g id="edge3" class="edge">
<title>CardConfirmationComponent&#45;&gt;ContentModule</title>
<path fill="none" stroke="#000000" d="M2390,-122.2843C2390,-143.3211 2390,-175 2390,-175 2390,-175 1411.9296,-175 1411.9296,-175"/>
<polygon fill="#000000" stroke="#000000" points="1411.9296,-171.5001 1401.9296,-175 1411.9295,-178.5001 1411.9296,-171.5001"/>
</g>
<!-- CardDefaultComponent -->
<g id="node4" class="node">
<title>CardDefaultComponent</title>
<polygon fill="#ffffb3" stroke="#000000" points="2280.0226,-122 2129.9774,-122 2129.9774,-86 2280.0226,-86 2280.0226,-122"/>
<text text-anchor="middle" x="2205" y="-99.8" font-family="Times,serif" font-size="14.00" fill="#000000">CardDefaultComponent</text>
</g>
<!-- CardDefaultComponent&#45;&gt;ContentModule -->
<g id="edge4" class="edge">
<title>CardDefaultComponent&#45;&gt;ContentModule</title>
<path fill="none" stroke="#000000" d="M2205,-122.308C2205,-142.1455 2205,-171 2205,-171 2205,-171 1412.197,-171 1412.197,-171"/>
<polygon fill="#000000" stroke="#000000" points="1412.1971,-167.5001 1402.197,-171 1412.197,-174.5001 1412.1971,-167.5001"/>
</g>
<!-- CardFormComponent -->
<g id="node5" class="node">
<title>CardFormComponent</title>
<polygon fill="#ffffb3" stroke="#000000" points="2111.3781,-122 1972.6219,-122 1972.6219,-86 2111.3781,-86 2111.3781,-122"/>
<text text-anchor="middle" x="2042" y="-99.8" font-family="Times,serif" font-size="14.00" fill="#000000">CardFormComponent</text>
</g>
<!-- CardFormComponent&#45;&gt;ContentModule -->
<g id="edge5" class="edge">
<title>CardFormComponent&#45;&gt;ContentModule</title>
<path fill="none" stroke="#000000" d="M2042,-122.2222C2042,-140.8285 2042,-167 2042,-167 2042,-167 1412.0125,-167 1412.0125,-167"/>
<polygon fill="#000000" stroke="#000000" points="1412.0125,-163.5001 1402.0125,-167 1412.0124,-170.5001 1412.0125,-163.5001"/>
</g>
<!-- CardFormFetchCaseComponent -->
<g id="node6" class="node">
<title>CardFormFetchCaseComponent</title>
<polygon fill="#ffffb3" stroke="#000000" points="1954.6909,-122 1757.3091,-122 1757.3091,-86 1954.6909,-86 1954.6909,-122"/>
<text text-anchor="middle" x="1856" y="-99.8" font-family="Times,serif" font-size="14.00" fill="#000000">CardFormFetchCaseComponent</text>
</g>
<!-- CardFormFetchCaseComponent&#45;&gt;ContentModule -->
<g id="edge6" class="edge">
<title>CardFormFetchCaseComponent&#45;&gt;ContentModule</title>
<path fill="none" stroke="#000000" d="M1856,-122.0225C1856,-139.3734 1856,-163 1856,-163 1856,-163 1412.2451,-163 1412.2451,-163"/>
<polygon fill="#000000" stroke="#000000" points="1412.2451,-159.5001 1402.2451,-163 1412.245,-166.5001 1412.2451,-159.5001"/>
</g>
<!-- CardImageComponent -->
<g id="node7" class="node">
<title>CardImageComponent</title>
<polygon fill="#ffffb3" stroke="#000000" points="1739.5254,-122 1596.4746,-122 1596.4746,-86 1739.5254,-86 1739.5254,-122"/>
<text text-anchor="middle" x="1668" y="-99.8" font-family="Times,serif" font-size="14.00" fill="#000000">CardImageComponent</text>
</g>
<!-- CardImageComponent&#45;&gt;ContentModule -->
<g id="edge7" class="edge">
<title>CardImageComponent&#45;&gt;ContentModule</title>
<path fill="none" stroke="#000000" d="M1668,-122.0091C1668,-138.0494 1668,-159 1668,-159 1668,-159 1412.1551,-159 1412.1551,-159"/>
<polygon fill="#000000" stroke="#000000" points="1412.1552,-155.5001 1402.1551,-159 1412.1551,-162.5001 1412.1552,-155.5001"/>
</g>
<!-- CardTableComponent -->
<g id="node8" class="node">
<title>CardTableComponent</title>
<polygon fill="#ffffb3" stroke="#000000" points="1578.4172,-122 1437.5828,-122 1437.5828,-86 1578.4172,-86 1578.4172,-122"/>
<text text-anchor="middle" x="1508" y="-99.8" font-family="Times,serif" font-size="14.00" fill="#000000">CardTableComponent</text>
</g>
<!-- CardTableComponent&#45;&gt;ContentModule -->
<g id="edge8" class="edge">
<title>CardTableComponent&#45;&gt;ContentModule</title>
<path fill="none" stroke="#000000" d="M1508,-122.1243C1508,-136.7832 1508,-155 1508,-155 1508,-155 1412.173,-155 1412.173,-155"/>
<polygon fill="#000000" stroke="#000000" points="1412.173,-151.5001 1402.173,-155 1412.173,-158.5001 1412.173,-151.5001"/>
</g>
<!-- CardTmplComponent -->
<g id="node9" class="node">
<title>CardTmplComponent</title>
<polygon fill="#ffffb3" stroke="#000000" points="1419.3781,-122 1280.6219,-122 1280.6219,-86 1419.3781,-86 1419.3781,-122"/>
<text text-anchor="middle" x="1350" y="-99.8" font-family="Times,serif" font-size="14.00" fill="#000000">CardTmplComponent</text>
</g>
<!-- CardTmplComponent&#45;&gt;ContentModule -->
<g id="edge9" class="edge">
<title>CardTmplComponent&#45;&gt;ContentModule</title>
<path fill="none" stroke="#000000" d="M1350,-122.1061C1350,-122.1061 1350,-140.991 1350,-140.991"/>
<polygon fill="#000000" stroke="#000000" points="1346.5001,-140.9909 1350,-150.991 1353.5001,-140.991 1346.5001,-140.9909"/>
</g>
<!-- ConfirmationComponent -->
<g id="node10" class="node">
<title>ConfirmationComponent</title>
<polygon fill="#ffffb3" stroke="#000000" points="1262.2674,-122 1105.7326,-122 1105.7326,-86 1262.2674,-86 1262.2674,-122"/>
<text text-anchor="middle" x="1184" y="-99.8" font-family="Times,serif" font-size="14.00" fill="#000000">ConfirmationComponent</text>
</g>
<!-- ConfirmationComponent&#45;&gt;ContentModule -->
<g id="edge10" class="edge">
<title>ConfirmationComponent&#45;&gt;ContentModule</title>
<path fill="none" stroke="#000000" d="M1184,-122.1243C1184,-136.7832 1184,-155 1184,-155 1184,-155 1287.932,-155 1287.932,-155"/>
<polygon fill="#000000" stroke="#000000" points="1287.9321,-158.5001 1297.932,-155 1287.932,-151.5001 1287.9321,-158.5001"/>
</g>
<!-- EditCaseComponent -->
<g id="node11" class="node">
<title>EditCaseComponent</title>
<polygon fill="#ffffb3" stroke="#000000" points="1087.8767,-122 956.1233,-122 956.1233,-86 1087.8767,-86 1087.8767,-122"/>
<text text-anchor="middle" x="1022" y="-99.8" font-family="Times,serif" font-size="14.00" fill="#000000">EditCaseComponent</text>
</g>
<!-- EditCaseComponent&#45;&gt;ContentModule -->
<g id="edge11" class="edge">
<title>EditCaseComponent&#45;&gt;ContentModule</title>
<path fill="none" stroke="#000000" d="M1022,-122.0091C1022,-138.0494 1022,-159 1022,-159 1022,-159 1288.0274,-159 1288.0274,-159"/>
<polygon fill="#000000" stroke="#000000" points="1288.0275,-162.5001 1298.0274,-159 1288.0274,-155.5001 1288.0275,-162.5001"/>
</g>
<!-- FetchcaseComponent -->
<g id="node12" class="node">
<title>FetchcaseComponent</title>
<polygon fill="#ffffb3" stroke="#000000" points="938.024,-122 801.976,-122 801.976,-86 938.024,-86 938.024,-122"/>
<text text-anchor="middle" x="870" y="-99.8" font-family="Times,serif" font-size="14.00" fill="#000000">FetchcaseComponent</text>
</g>
<!-- FetchcaseComponent&#45;&gt;ContentModule -->
<g id="edge12" class="edge">
<title>FetchcaseComponent&#45;&gt;ContentModule</title>
<path fill="none" stroke="#000000" d="M870,-122.0225C870,-139.3734 870,-163 870,-163 870,-163 1287.7178,-163 1287.7178,-163"/>
<polygon fill="#000000" stroke="#000000" points="1287.7179,-166.5001 1297.7178,-163 1287.7178,-159.5001 1287.7179,-166.5001"/>
</g>
<!-- FrontpageComponent -->
<g id="node13" class="node">
<title>FrontpageComponent</title>
<polygon fill="#ffffb3" stroke="#000000" points="784.0954,-122 645.9046,-122 645.9046,-86 784.0954,-86 784.0954,-122"/>
<text text-anchor="middle" x="715" y="-99.8" font-family="Times,serif" font-size="14.00" fill="#000000">FrontpageComponent</text>
</g>
<!-- FrontpageComponent&#45;&gt;ContentModule -->
<g id="edge13" class="edge">
<title>FrontpageComponent&#45;&gt;ContentModule</title>
<path fill="none" stroke="#000000" d="M715,-122.2222C715,-140.8285 715,-167 715,-167 715,-167 1288.0353,-167 1288.0353,-167"/>
<polygon fill="#000000" stroke="#000000" points="1288.0353,-170.5001 1298.0353,-167 1288.0352,-163.5001 1288.0353,-170.5001"/>
</g>
<!-- InformationComponent -->
<g id="node14" class="node">
<title>InformationComponent</title>
<polygon fill="#ffffb3" stroke="#000000" points="628.2007,-122 479.7993,-122 479.7993,-86 628.2007,-86 628.2007,-122"/>
<text text-anchor="middle" x="554" y="-99.8" font-family="Times,serif" font-size="14.00" fill="#000000">InformationComponent</text>
</g>
<!-- InformationComponent&#45;&gt;ContentModule -->
<g id="edge14" class="edge">
<title>InformationComponent&#45;&gt;ContentModule</title>
<path fill="none" stroke="#000000" d="M554,-122.308C554,-142.1455 554,-171 554,-171 554,-171 1288.0793,-171 1288.0793,-171"/>
<polygon fill="#000000" stroke="#000000" points="1288.0793,-174.5001 1298.0793,-171 1288.0792,-167.5001 1288.0793,-174.5001"/>
</g>
<!-- PageHeaderComponent -->
<g id="node15" class="node">
<title>PageHeaderComponent</title>
<polygon fill="#ffffb3" stroke="#000000" points="461.4552,-122 312.5448,-122 312.5448,-86 461.4552,-86 461.4552,-122"/>
<text text-anchor="middle" x="387" y="-99.8" font-family="Times,serif" font-size="14.00" fill="#000000">PageHeaderComponent</text>
</g>
<!-- PageHeaderComponent&#45;&gt;ContentModule -->
<g id="edge15" class="edge">
<title>PageHeaderComponent&#45;&gt;ContentModule</title>
<path fill="none" stroke="#000000" d="M387,-122.2843C387,-143.3211 387,-175 387,-175 387,-175 1287.8835,-175 1287.8835,-175"/>
<polygon fill="#000000" stroke="#000000" points="1287.8835,-178.5001 1297.8835,-175 1287.8835,-171.5001 1287.8835,-178.5001"/>
</g>
<!-- PopupComponent -->
<g id="node16" class="node">
<title>PopupComponent</title>
<polygon fill="#ffffb3" stroke="#000000" points="294.6151,-122 177.3849,-122 177.3849,-86 294.6151,-86 294.6151,-122"/>
<text text-anchor="middle" x="236" y="-99.8" font-family="Times,serif" font-size="14.00" fill="#000000">PopupComponent</text>
</g>
<!-- PopupComponent&#45;&gt;ContentModule -->
<g id="edge16" class="edge">
<title>PopupComponent&#45;&gt;ContentModule</title>
<path fill="none" stroke="#000000" d="M236,-122.1554C236,-144.3519 236,-179 236,-179 236,-179 1287.7636,-179 1287.7636,-179"/>
<polygon fill="#000000" stroke="#000000" points="1287.7637,-182.5001 1297.7636,-179 1287.7636,-175.5001 1287.7637,-182.5001"/>
</g>
<!-- SummaryComponent -->
<g id="node17" class="node">
<title>SummaryComponent</title>
<polygon fill="#ffffb3" stroke="#000000" points="159.7716,-122 24.2284,-122 24.2284,-86 159.7716,-86 159.7716,-122"/>
<text text-anchor="middle" x="92" y="-99.8" font-family="Times,serif" font-size="14.00" fill="#000000">SummaryComponent</text>
</g>
<!-- SummaryComponent&#45;&gt;ContentModule -->
<g id="edge17" class="edge">
<title>SummaryComponent&#45;&gt;ContentModule</title>
<path fill="none" stroke="#000000" d="M92,-122.3228C92,-145.6602 92,-183 92,-183 92,-183 1287.9439,-183 1287.9439,-183"/>
<polygon fill="#000000" stroke="#000000" points="1287.944,-186.5001 1297.9439,-183 1287.9439,-179.5001 1287.944,-186.5001"/>
</g>
</g>
</svg>
