<?xml version="1.0" encoding="UTF-8" standalone="no"?>
<!DOCTYPE svg PUBLIC "-//W3C//DTD SVG 1.1//EN"
 "http://www.w3.org/Graphics/SVG/1.1/DTD/svg11.dtd">
<!-- Generated by graphviz version 2.40.1 (20161225.0304)
 -->
<!-- Title: dependencies Pages: 1 -->
<svg width="2682pt" height="211pt"
 viewBox="0.00 0.00 2682.00 211.00" xmlns="http://www.w3.org/2000/svg" xmlns:xlink="http://www.w3.org/1999/xlink">
<g id="graph0" class="graph" transform="scale(1 1) rotate(0) translate(4 207)">
<title>dependencies</title>
<polygon fill="#ffffff" stroke="transparent" points="-4,4 -4,-207 2678,-207 2678,4 -4,4"/>
<text text-anchor="start" x="1316.0091" y="-42.4" font-family="sans-serif" font-weight="bold" font-size="14.00" fill="#000000">Legend</text>
<polygon fill="#ffffb3" stroke="transparent" points="1103,-10 1103,-30 1123,-30 1123,-10 1103,-10"/>
<text text-anchor="start" x="1126.629" y="-15.4" font-family="sans-serif" font-size="14.00" fill="#000000"> &#160;Declarations</text>
<polygon fill="#8dd3c7" stroke="transparent" points="1216,-10 1216,-30 1236,-30 1236,-10 1216,-10"/>
<text text-anchor="start" x="1239.7251" y="-15.4" font-family="sans-serif" font-size="14.00" fill="#000000"> &#160;Module</text>
<polygon fill="#80b1d3" stroke="transparent" points="1302,-10 1302,-30 1322,-30 1322,-10 1302,-10"/>
<text text-anchor="start" x="1325.7812" y="-15.4" font-family="sans-serif" font-size="14.00" fill="#000000"> &#160;Bootstrap</text>
<polygon fill="#fdb462" stroke="transparent" points="1399,-10 1399,-30 1419,-30 1419,-10 1399,-10"/>
<text text-anchor="start" x="1422.6732" y="-15.4" font-family="sans-serif" font-size="14.00" fill="#000000"> &#160;Providers</text>
<polygon fill="#fb8072" stroke="transparent" points="1495,-10 1495,-30 1515,-30 1515,-10 1495,-10"/>
<text text-anchor="start" x="1518.7258" y="-15.4" font-family="sans-serif" font-size="14.00" fill="#000000"> &#160;Exports</text>
<g id="clust1" class="cluster">
<title>cluster_ContentModule</title>
<polygon fill="none" stroke="#000000" stroke-dasharray="1,5" points="8,-70 8,-195 2666,-195 2666,-70 8,-70"/>
</g>
<g id="clust2" class="cluster">
<title>cluster_ContentModule_declarations</title>
<polygon fill="none" stroke="#000000" points="16,-78 16,-130 2658,-130 2658,-78 16,-78"/>
</g>
<!-- AutMethodPopupComponent -->
<g id="node1" class="node">
<title>AutMethodPopupComponent</title>
<polygon fill="#ffffb3" stroke="#000000" points="2649.6623,-122 2468.3377,-122 2468.3377,-86 2649.6623,-86 2649.6623,-122"/>
<text text-anchor="middle" x="2559" y="-99.8" font-family="Times,serif" font-size="14.00" fill="#000000">AutMethodPopupComponent</text>
</g>
<!-- ContentModule -->
<g id="node17" class="node">
<title>ContentModule</title>
<polygon fill="#8dd3c7" stroke="#000000" points="1314.8823,-187 1311.8823,-191 1290.8823,-191 1287.8823,-187 1211.1177,-187 1211.1177,-151 1314.8823,-151 1314.8823,-187"/>
<text text-anchor="middle" x="1263" y="-164.8" font-family="Times,serif" font-size="14.00" fill="#000000">ContentModule</text>
</g>
<!-- AutMethodPopupComponent&#45;&gt;ContentModule -->
<g id="edge1" class="edge">
<title>AutMethodPopupComponent&#45;&gt;ContentModule</title>
<path fill="none" stroke="#000000" d="M2559,-122.3228C2559,-145.6602 2559,-183 2559,-183 2559,-183 1325.0065,-183 1325.0065,-183"/>
<polygon fill="#000000" stroke="#000000" points="1325.0065,-179.5001 1315.0065,-183 1325.0064,-186.5001 1325.0065,-179.5001"/>
</g>
<!-- CardCaseNumber -->
<g id="node2" class="node">
<title>CardCaseNumber</title>
<polygon fill="#ffffb3" stroke="#000000" points="2450.295,-122 2333.705,-122 2333.705,-86 2450.295,-86 2450.295,-122"/>
<text text-anchor="middle" x="2392" y="-99.8" font-family="Times,serif" font-size="14.00" fill="#000000">CardCaseNumber</text>
</g>
<!-- CardCaseNumber&#45;&gt;ContentModule -->
<g id="edge2" class="edge">
<title>CardCaseNumber&#45;&gt;ContentModule</title>
<path fill="none" stroke="#000000" d="M2392,-122.2921C2392,-144.2057 2392,-178 2392,-178 2392,-178 1325.1897,-178 1325.1897,-178"/>
<polygon fill="#000000" stroke="#000000" points="1325.1898,-174.5001 1315.1897,-178 1325.1897,-181.5001 1325.1898,-174.5001"/>
</g>
<!-- CardConfirmationComponent -->
<g id="node3" class="node">
<title>CardConfirmationComponent</title>
<polygon fill="#ffffb3" stroke="#000000" points="2315.979,-122 2132.021,-122 2132.021,-86 2315.979,-86 2315.979,-122"/>
<text text-anchor="middle" x="2224" y="-99.8" font-family="Times,serif" font-size="14.00" fill="#000000">CardConfirmationComponent</text>
</g>
<!-- CardConfirmationComponent&#45;&gt;ContentModule -->
<g id="edge3" class="edge">
<title>CardConfirmationComponent&#45;&gt;ContentModule</title>
<path fill="none" stroke="#000000" d="M2224,-122.0267C2224,-142.7672 2224,-174 2224,-174 2224,-174 1325.0083,-174 1325.0083,-174"/>
<polygon fill="#000000" stroke="#000000" points="1325.0083,-170.5001 1315.0083,-174 1325.0082,-177.5001 1325.0083,-170.5001"/>
</g>
<!-- CardDefaultComponent -->
<g id="node4" class="node">
<title>CardDefaultComponent</title>
<polygon fill="#ffffb3" stroke="#000000" points="2114.0226,-122 1963.9774,-122 1963.9774,-86 2114.0226,-86 2114.0226,-122"/>
<text text-anchor="middle" x="2039" y="-99.8" font-family="Times,serif" font-size="14.00" fill="#000000">CardDefaultComponent</text>
</g>
<!-- CardDefaultComponent&#45;&gt;ContentModule -->
<g id="edge4" class="edge">
<title>CardDefaultComponent&#45;&gt;ContentModule</title>
<path fill="none" stroke="#000000" d="M2039,-122.1061C2039,-141.3391 2039,-169 2039,-169 2039,-169 1325.1205,-169 1325.1205,-169"/>
<polygon fill="#000000" stroke="#000000" points="1325.1205,-165.5001 1315.1205,-169 1325.1205,-172.5001 1325.1205,-165.5001"/>
</g>
<!-- CardFormComponent -->
<g id="node5" class="node">
<title>CardFormComponent</title>
<polygon fill="#ffffb3" stroke="#000000" points="1945.3781,-122 1806.6219,-122 1806.6219,-86 1945.3781,-86 1945.3781,-122"/>
<text text-anchor="middle" x="1876" y="-99.8" font-family="Times,serif" font-size="14.00" fill="#000000">CardFormComponent</text>
</g>
<!-- CardFormComponent&#45;&gt;ContentModule -->
<g id="edge5" class="edge">
<title>CardFormComponent&#45;&gt;ContentModule</title>
<path fill="none" stroke="#000000" d="M1876,-122.302C1876,-140.2699 1876,-165 1876,-165 1876,-165 1324.9996,-165 1324.9996,-165"/>
<polygon fill="#000000" stroke="#000000" points="1324.9996,-161.5001 1314.9996,-165 1324.9996,-168.5001 1324.9996,-161.5001"/>
</g>
<!-- CardFormFetchCaseComponent -->
<g id="node6" class="node">
<title>CardFormFetchCaseComponent</title>
<polygon fill="#ffffb3" stroke="#000000" points="1788.6909,-122 1591.3091,-122 1591.3091,-86 1788.6909,-86 1788.6909,-122"/>
<text text-anchor="middle" x="1690" y="-99.8" font-family="Times,serif" font-size="14.00" fill="#000000">CardFormFetchCaseComponent</text>
</g>
<!-- CardFormFetchCaseComponent&#45;&gt;ContentModule -->
<g id="edge6" class="edge">
<title>CardFormFetchCaseComponent&#45;&gt;ContentModule</title>
<path fill="none" stroke="#000000" d="M1690,-122.027C1690,-138.3976 1690,-160 1690,-160 1690,-160 1324.9317,-160 1324.9317,-160"/>
<polygon fill="#000000" stroke="#000000" points="1324.9317,-156.5001 1314.9317,-160 1324.9317,-163.5001 1324.9317,-156.5001"/>
</g>
<!-- CardImageComponent -->
<g id="node7" class="node">
<title>CardImageComponent</title>
<polygon fill="#ffffb3" stroke="#000000" points="1573.5254,-122 1430.4746,-122 1430.4746,-86 1573.5254,-86 1573.5254,-122"/>
<text text-anchor="middle" x="1502" y="-99.8" font-family="Times,serif" font-size="14.00" fill="#000000">CardImageComponent</text>
</g>
<!-- CardImageComponent&#45;&gt;ContentModule -->
<g id="edge7" class="edge">
<title>CardImageComponent&#45;&gt;ContentModule</title>
<path fill="none" stroke="#000000" d="M1502,-122.1871C1502,-137.1824 1502,-156 1502,-156 1502,-156 1325.1542,-156 1325.1542,-156"/>
<polygon fill="#000000" stroke="#000000" points="1325.1543,-152.5001 1315.1542,-156 1325.1542,-159.5001 1325.1543,-152.5001"/>
</g>
<!-- CardTableComponent -->
<g id="node8" class="node">
<title>CardTableComponent</title>
<polygon fill="#ffffb3" stroke="#000000" points="1412.4172,-122 1271.5828,-122 1271.5828,-86 1412.4172,-86 1412.4172,-122"/>
<text text-anchor="middle" x="1342" y="-99.8" font-family="Times,serif" font-size="14.00" fill="#000000">CardTableComponent</text>
</g>
<!-- CardTableComponent&#45;&gt;ContentModule -->
<g id="edge8" class="edge">
<title>CardTableComponent&#45;&gt;ContentModule</title>
<path fill="none" stroke="#000000" d="M1293.3664,-122.1061C1293.3664,-122.1061 1293.3664,-140.991 1293.3664,-140.991"/>
<polygon fill="#000000" stroke="#000000" points="1289.8665,-140.9909 1293.3664,-150.991 1296.8665,-140.991 1289.8665,-140.9909"/>
</g>
<!-- CardTmplComponent -->
<g id="node9" class="node">
<title>CardTmplComponent</title>
<polygon fill="#ffffb3" stroke="#000000" points="1253.3781,-122 1114.6219,-122 1114.6219,-86 1253.3781,-86 1253.3781,-122"/>
<text text-anchor="middle" x="1184" y="-99.8" font-family="Times,serif" font-size="14.00" fill="#000000">CardTmplComponent</text>
</g>
<!-- CardTmplComponent&#45;&gt;ContentModule -->
<g id="edge9" class="edge">
<title>CardTmplComponent&#45;&gt;ContentModule</title>
<path fill="none" stroke="#000000" d="M1232.249,-122.1061C1232.249,-122.1061 1232.249,-140.991 1232.249,-140.991"/>
<polygon fill="#000000" stroke="#000000" points="1228.749,-140.9909 1232.249,-150.991 1235.749,-140.991 1228.749,-140.9909"/>
</g>
<!-- ConfirmationComponent -->
<g id="node10" class="node">
<title>ConfirmationComponent</title>
<polygon fill="#ffffb3" stroke="#000000" points="1096.2674,-122 939.7326,-122 939.7326,-86 1096.2674,-86 1096.2674,-122"/>
<text text-anchor="middle" x="1018" y="-99.8" font-family="Times,serif" font-size="14.00" fill="#000000">ConfirmationComponent</text>
</g>
<!-- ConfirmationComponent&#45;&gt;ContentModule -->
<g id="edge10" class="edge">
<title>ConfirmationComponent&#45;&gt;ContentModule</title>
<path fill="none" stroke="#000000" d="M1018,-122.1871C1018,-137.1824 1018,-156 1018,-156 1018,-156 1201.0418,-156 1201.0418,-156"/>
<polygon fill="#000000" stroke="#000000" points="1201.0418,-159.5001 1211.0418,-156 1201.0418,-152.5001 1201.0418,-159.5001"/>
</g>
<!-- EditCaseComponent -->
<g id="node11" class="node">
<title>EditCaseComponent</title>
<polygon fill="#ffffb3" stroke="#000000" points="921.8767,-122 790.1233,-122 790.1233,-86 921.8767,-86 921.8767,-122"/>
<text text-anchor="middle" x="856" y="-99.8" font-family="Times,serif" font-size="14.00" fill="#000000">EditCaseComponent</text>
</g>
<!-- EditCaseComponent&#45;&gt;ContentModule -->
<g id="edge11" class="edge">
<title>EditCaseComponent&#45;&gt;ContentModule</title>
<path fill="none" stroke="#000000" d="M856,-122.027C856,-138.3976 856,-160 856,-160 856,-160 1201.0398,-160 1201.0398,-160"/>
<polygon fill="#000000" stroke="#000000" points="1201.0398,-163.5001 1211.0398,-160 1201.0397,-156.5001 1201.0398,-163.5001"/>
</g>
<!-- FetchcaseComponent -->
<g id="node12" class="node">
<title>FetchcaseComponent</title>
<polygon fill="#ffffb3" stroke="#000000" points="772.024,-122 635.976,-122 635.976,-86 772.024,-86 772.024,-122"/>
<text text-anchor="middle" x="704" y="-99.8" font-family="Times,serif" font-size="14.00" fill="#000000">FetchcaseComponent</text>
</g>
<!-- FetchcaseComponent&#45;&gt;ContentModule -->
<g id="edge12" class="edge">
<title>FetchcaseComponent&#45;&gt;ContentModule</title>
<path fill="none" stroke="#000000" d="M704,-122.302C704,-140.2699 704,-165 704,-165 704,-165 1200.9126,-165 1200.9126,-165"/>
<polygon fill="#000000" stroke="#000000" points="1200.9126,-168.5001 1210.9126,-165 1200.9126,-161.5001 1200.9126,-168.5001"/>
</g>
<!-- FrontpageComponent -->
<g id="node13" class="node">
<title>FrontpageComponent</title>
<polygon fill="#ffffb3" stroke="#000000" points="618.0954,-122 479.9046,-122 479.9046,-86 618.0954,-86 618.0954,-122"/>
<text text-anchor="middle" x="549" y="-99.8" font-family="Times,serif" font-size="14.00" fill="#000000">FrontpageComponent</text>
</g>
<!-- FrontpageComponent&#45;&gt;ContentModule -->
<g id="edge13" class="edge">
<title>FrontpageComponent&#45;&gt;ContentModule</title>
<path fill="none" stroke="#000000" d="M549,-122.1061C549,-141.3391 549,-169 549,-169 549,-169 1201.0757,-169 1201.0757,-169"/>
<polygon fill="#000000" stroke="#000000" points="1201.0758,-172.5001 1211.0757,-169 1201.0757,-165.5001 1201.0758,-172.5001"/>
</g>
<!-- PageHeaderComponent -->
<g id="node14" class="node">
<title>PageHeaderComponent</title>
<polygon fill="#ffffb3" stroke="#000000" points="461.4552,-122 312.5448,-122 312.5448,-86 461.4552,-86 461.4552,-122"/>
<text text-anchor="middle" x="387" y="-99.8" font-family="Times,serif" font-size="14.00" fill="#000000">PageHeaderComponent</text>
</g>
<!-- PageHeaderComponent&#45;&gt;ContentModule -->
<g id="edge14" class="edge">
<title>PageHeaderComponent&#45;&gt;ContentModule</title>
<path fill="none" stroke="#000000" d="M387,-122.0267C387,-142.7672 387,-174 387,-174 387,-174 1200.8256,-174 1200.8256,-174"/>
<polygon fill="#000000" stroke="#000000" points="1200.8256,-177.5001 1210.8256,-174 1200.8256,-170.5001 1200.8256,-177.5001"/>
</g>
<!-- PopupComponent -->
<g id="node15" class="node">
<title>PopupComponent</title>
<polygon fill="#ffffb3" stroke="#000000" points="294.6151,-122 177.3849,-122 177.3849,-86 294.6151,-86 294.6151,-122"/>
<text text-anchor="middle" x="236" y="-99.8" font-family="Times,serif" font-size="14.00" fill="#000000">PopupComponent</text>
</g>
<!-- PopupComponent&#45;&gt;ContentModule -->
<g id="edge15" class="edge">
<title>PopupComponent&#45;&gt;ContentModule</title>
<path fill="none" stroke="#000000" d="M236,-122.2921C236,-144.2057 236,-178 236,-178 236,-178 1201.0136,-178 1201.0136,-178"/>
<polygon fill="#000000" stroke="#000000" points="1201.0136,-181.5001 1211.0136,-178 1201.0135,-174.5001 1201.0136,-181.5001"/>
</g>
<!-- SummaryComponent -->
<g id="node16" class="node">
<title>SummaryComponent</title>
<polygon fill="#ffffb3" stroke="#000000" points="159.7716,-122 24.2284,-122 24.2284,-86 159.7716,-86 159.7716,-122"/>
<text text-anchor="middle" x="92" y="-99.8" font-family="Times,serif" font-size="14.00" fill="#000000">SummaryComponent</text>
</g>
<!-- SummaryComponent&#45;&gt;ContentModule -->
<g id="edge16" class="edge">
<title>SummaryComponent&#45;&gt;ContentModule</title>
<path fill="none" stroke="#000000" d="M92,-122.3228C92,-145.6602 92,-183 92,-183 92,-183 1200.7918,-183 1200.7918,-183"/>
<polygon fill="#000000" stroke="#000000" points="1200.7918,-186.5001 1210.7918,-183 1200.7917,-179.5001 1200.7918,-186.5001"/>
</g>
</g>
</svg>
